<svg xmlns="http://www.w3.org/2000/svg" width="40" height="39.999" viewBox="0 0 40 39.999">
  <path id="copy-regular" d="M39.256,5.518,34.471.733A2.493,2.493,0,0,0,32.7,0H19.92a5,5,0,0,0-5,5l0,20a5.1,5.1,0,0,0,5.069,5h15a5.015,5.015,0,0,0,5-5V7.285A2.5,2.5,0,0,0,39.256,5.518ZM36.24,25a1.25,1.25,0,0,1-1.25,1.25H19.92A1.25,1.25,0,0,1,18.67,25V5.01a1.25,1.25,0,0,1,1.25-1.25h10l.07,3.74a2.5,2.5,0,0,0,2.5,2.5h3.68V25Zm-15,10a1.25,1.25,0,0,1-1.25,1.25H4.92A1.25,1.25,0,0,1,3.67,35l.069-19.992a1.25,1.25,0,0,1,1.25-1.25h7.5V10H4.99a5,5,0,0,0-5,5V35a5,5,0,0,0,5,5h15a5.015,5.015,0,0,0,5-5V32.5h-3.68Z" transform="translate(0.01)" fill="#a0a4af"/>
</svg>
