<svg xmlns="http://www.w3.org/2000/svg" width="250" height="250" viewBox="0 0 250 250">
  <g id="グループ_6" data-name="グループ 6" transform="translate(-678 -227)">
    <g id="長方形_8" data-name="長方形 8" transform="translate(678 227)" fill="#fff" stroke="#707070" stroke-width="1">
      <rect width="250" height="250" rx="125" stroke="none"/>
      <rect x="0.5" y="0.5" width="249" height="249" rx="124.5" fill="none"/>
    </g>
    <g id="_2位アイコン" data-name="2位アイコン" transform="translate(678 227)">
      <path id="パス_1" data-name="パス 1" d="M125.005,0A125,125,0,1,0,250,125,125,125,0,0,0,125.005,0Zm93.7,82.228c3.317,2.66,5.44,7.74,5.175,13.462-.266,5.705-2.853,10.525-6.4,12.787-3.328-2.659-5.439-7.75-5.174-13.461S215.161,84.489,218.709,82.228Zm-7.684,39.937c-4.4-.9-8.945-4.61-11.609-10.028s-2.764-11.09-.664-14.854c4.412.9,8.956,4.611,11.621,10.034C213.049,112.722,213.137,118.4,211.025,122.164ZM189.432,84.047c-3.991-3.986-5.849-8.89-5.229-12.731,4.058-.4,9.122,1.6,13.124,5.595s5.849,8.9,5.219,12.731C198.488,90.045,193.423,88.044,189.432,84.047Zm2.82,91.559c-1.083,6.23-4.589,11.162-8.8,13.146-3.272-3.383-4.887-9.254-3.8-15.484s4.589-11.146,8.8-13.141C191.72,163.5,193.346,169.381,192.251,175.606ZM207.7,145.715c-.033,5.976-2.52,11.106-6.125,13.6-3.583-2.648-6-7.878-5.982-13.854s2.521-11.1,6.126-13.6C205.3,134.509,207.719,139.739,207.7,145.715ZM197.161,54.7c3.626,1.2,7.087,4.787,8.823,9.625s1.26,9.619-.874,12.583c-3.616-1.211-7.087-4.788-8.812-9.625S195.026,57.66,197.161,54.7Zm-13.168-3.521c3.726,3.693,5.484,8.259,4.92,11.83-3.781.393-8.5-1.449-12.228-5.152s-5.5-8.254-4.931-11.836C175.534,45.636,180.244,47.482,183.992,51.181Zm-117.985,0c3.748-3.7,8.458-5.545,12.24-5.158.563,3.582-1.194,8.138-4.92,11.836S64.869,63.4,61.1,63.011C60.534,59.44,62.281,54.874,66.007,51.181ZM61.552,160.127c4.212,2,7.718,6.916,8.8,13.141s-.52,12.1-3.8,15.484c-4.2-1.985-7.706-6.916-8.8-13.146S58.279,163.5,61.552,160.127Zm-14.1-70.485c-.631-3.832,1.228-8.74,5.229-12.731s9.055-6,13.113-5.595c.619,3.842-1.238,8.746-5.229,12.731S51.513,90.045,47.455,89.642ZM44.016,64.327c1.736-4.837,5.2-8.425,8.823-9.625,2.134,2.958,2.6,7.745.874,12.583s-5.2,8.414-8.823,9.625C42.756,73.946,42.28,69.159,44.016,64.327Zm7.231,32.954c2.1,3.765,2.013,9.442-.652,14.854s-7.22,9.133-11.621,10.028c-2.111-3.765-2.023-9.442.653-14.849C42.292,101.892,46.835,98.183,51.247,97.281Zm3.162,48.185c.033,5.976-2.4,11.206-5.982,13.854-3.6-2.5-6.092-7.629-6.114-13.6s2.388-11.206,5.971-13.854C51.889,134.365,54.376,139.5,54.409,145.466ZM31.29,82.228c3.56,2.261,6.137,7.071,6.4,12.787s-1.847,10.8-5.175,13.461c-3.549-2.261-6.137-7.081-6.4-12.787C25.85,89.967,27.973,84.887,31.29,82.228ZM20.9,133.851c-3.262-5.015-4.014-10.658-2.366-14.706,4.467.276,9.375,3.328,12.638,8.354s4,10.647,2.366,14.7C29.067,141.928,24.158,138.871,20.9,133.851ZM36.487,181c-5.761-3.638-9.21-8.967-9.431-13.722,4.732-1.625,11.277-.658,17.038,2.98s9.2,8.956,9.431,13.71C48.781,185.6,42.247,184.634,36.487,181Zm30.781,27.11C60.6,206,55.691,201.683,54.11,197.155c4.18-2.709,10.847-3.35,17.514-1.228,6.678,2.106,11.576,6.429,13.157,10.952C80.613,209.589,73.946,210.23,67.268,208.112Zm83.676-49.788a1.283,1.283,0,0,1,1.349,1.36v10.858a1.28,1.28,0,0,1-1.349,1.36H99.078a1.28,1.28,0,0,1-1.349-1.36V160.359A2.066,2.066,0,0,1,98.4,158.6l32.584-40.594c3.671-4.478,5.971-8.823,5.971-14.119,0-6.916-4.478-12.212-12.218-12.212-7.33,0-11.543,4.478-12.494,11.532a1.191,1.191,0,0,1-1.493,1.089l-11.941-2.444a1.313,1.313,0,0,1-1.083-1.631c1.217-10.857,9.907-22.124,27.42-22.124,17.237,0,27.144,11.4,27.144,25.79,0,8.281-3.251,15.076-8.68,21.588l-26.89,32.578v.271h34.22Zm31.788,49.788c-6.667,2.118-13.346,1.477-17.514-1.232,1.581-4.522,6.479-8.845,13.157-10.952,6.667-2.123,13.345-1.481,17.514,1.228C194.308,201.683,189.41,206,182.732,208.112ZM213.514,181c-5.75,3.632-12.295,4.6-17.039,2.969.232-4.755,3.682-10.078,9.431-13.71,5.771-3.638,12.306-4.6,17.049-2.98C222.723,172.035,219.273,177.364,213.514,181Zm2.951-38.8c-1.636-4.052-.9-9.686,2.366-14.7s8.171-8.077,12.638-8.354c1.647,4.047.9,9.691-2.366,14.706S220.932,141.928,216.465,142.2Z" fill="silver"/>
    </g>
  </g>
</svg>
