<svg xmlns="http://www.w3.org/2000/svg" width="250" height="250" viewBox="0 0 250 250">
  <g id="グループ_7" data-name="グループ 7" transform="translate(-1144 -246)">
    <g id="長方形_9" data-name="長方形 9" transform="translate(1144 246)" fill="#fff" stroke="#707070" stroke-width="1">
      <rect width="250" height="250" rx="125" stroke="none"/>
      <rect x="0.5" y="0.5" width="249" height="249" rx="124.5" fill="none"/>
    </g>
    <g id="_3位アイコン" data-name="3位アイコン" transform="translate(1144 246)">
      <path id="パス_2" data-name="パス 2" d="M125.006,0A125,125,0,1,0,250,125,125,125,0,0,0,125.006,0Zm93.7,82.228c3.328,2.66,5.451,7.74,5.175,13.462-.266,5.705-2.842,10.525-6.4,12.787-3.316-2.659-5.439-7.75-5.163-13.461S215.161,84.489,218.71,82.228Zm-7.673,39.937c-4.412-.9-8.956-4.61-11.62-10.028s-2.764-11.09-.652-14.854c4.4.9,8.944,4.611,11.62,10.034C213.061,112.722,213.149,118.4,211.037,122.164Zm-21.6-38.117c-3.992-3.986-5.849-8.89-5.229-12.731,4.068-.4,9.133,1.6,13.124,5.595s5.849,8.9,5.229,12.731C198.487,90.045,193.435,88.044,189.432,84.047Zm2.82,91.559c-1.083,6.23-4.589,11.162-8.8,13.146-3.272-3.383-4.887-9.254-3.8-15.484s4.589-11.146,8.812-13.141C191.721,163.5,193.346,169.381,192.252,175.606ZM207.7,145.715c-.033,5.976-2.521,11.106-6.125,13.6-3.583-2.648-6-7.878-5.971-13.854s2.51-11.1,6.114-13.6C205.3,134.509,207.73,139.739,207.7,145.715ZM197.161,54.7c3.626,1.2,7.1,4.787,8.823,9.625s1.26,9.619-.874,12.583c-3.616-1.211-7.088-4.788-8.813-9.625S195.038,57.66,197.161,54.7Zm-13.168-3.521c3.726,3.693,5.484,8.259,4.92,11.83-3.781.393-8.5-1.449-12.228-5.152s-5.5-8.254-4.92-11.836C175.534,45.636,180.255,47.482,183.993,51.181Zm-117.974,0c3.737-3.7,8.447-5.545,12.229-5.158.564,3.582-1.183,8.138-4.92,11.836S64.88,63.4,61.1,63.011C60.535,59.44,62.282,54.874,66.019,51.181ZM61.552,160.127c4.212,2,7.718,6.916,8.8,13.141s-.52,12.1-3.793,15.484c-4.212-1.985-7.717-6.916-8.8-13.146S58.28,163.5,61.552,160.127Zm-14.1-70.485c-.619-3.832,1.239-8.74,5.23-12.731s9.055-6,13.113-5.595c.63,3.842-1.239,8.746-5.229,12.731S51.513,90.045,47.455,89.642ZM44.017,64.327c1.736-4.837,5.2-8.425,8.823-9.625,2.134,2.958,2.6,7.745.874,12.583s-5.2,8.414-8.823,9.625C42.756,73.946,42.292,69.159,44.017,64.327Zm7.231,32.954c2.111,3.765,2.023,9.442-.653,14.854s-7.22,9.133-11.62,10.028c-2.111-3.765-2.023-9.442.652-14.849C42.292,101.892,46.836,98.183,51.248,97.281Zm3.163,48.185c.033,5.976-2.4,11.206-5.982,13.854-3.6-2.5-6.081-7.629-6.114-13.6s2.4-11.206,5.971-13.854C51.889,134.365,54.376,139.5,54.41,145.466ZM31.291,82.228c3.56,2.261,6.136,7.071,6.4,12.787s-1.846,10.8-5.163,13.461c-3.56-2.261-6.147-7.081-6.4-12.787C25.851,89.967,27.973,84.887,31.291,82.228ZM20.9,133.851c-3.262-5.015-4-10.658-2.355-14.706,4.456.276,9.365,3.328,12.638,8.354s4,10.647,2.355,14.7C29.079,141.928,24.159,138.871,20.9,133.851ZM36.487,181c-5.76-3.638-9.21-8.967-9.431-13.722,4.743-1.625,11.278-.658,17.038,2.98s9.21,8.956,9.431,13.71C48.782,185.6,42.247,184.634,36.487,181Zm30.792,27.11C60.6,206,55.7,201.683,54.122,197.155c4.168-2.709,10.835-3.35,17.513-1.228,6.667,2.106,11.565,6.429,13.157,10.952C80.625,209.589,73.946,210.23,67.279,208.112Zm57.527-35.464c-14.384,0-25.651-7.2-28.5-19.819a1.529,1.529,0,0,1,1.083-1.769l11.808-2.709a1.332,1.332,0,0,1,1.625.945c1.9,5.434,6.391,9.773,13.986,9.773,8.547,0,13.577-5.832,13.577-13.709,0-9.371-5.97-15.065-15.07-15.065h-3.936a1.285,1.285,0,0,1-1.36-1.36v-10.72a1.287,1.287,0,0,1,1.36-1.365h3.671c8.138,0,13.434-5.3,13.434-13.439,0-7.325-4.61-12.483-12.35-12.483-6.789,0-10.725,3.8-12.351,9.5a1.3,1.3,0,0,1-1.636.945L98.613,98.662a1.308,1.308,0,0,1-1.084-1.63c2.035-11.129,12.207-19.681,27.145-19.681,17.248,0,27.144,10.586,27.144,25.519a22.374,22.374,0,0,1-10.3,19.139v.271c5.417,2.316,12.206,10.321,12.206,22.4C153.72,161.515,141.37,172.648,124.807,172.648Zm57.925,35.464c-6.667,2.118-13.345,1.477-17.513-1.232,1.581-4.522,6.479-8.845,13.157-10.952,6.667-2.123,13.345-1.481,17.513,1.228C194.309,201.683,189.41,206,182.732,208.112ZM213.525,181c-5.761,3.632-12.295,4.6-17.039,2.969.221-4.755,3.671-10.078,9.431-13.71s12.295-4.6,17.038-2.98C222.734,172.035,219.285,177.364,213.525,181Zm2.952-38.8c-1.647-4.052-.907-9.686,2.355-14.7s8.182-8.077,12.638-8.354c1.647,4.047.907,9.691-2.355,14.706S220.933,141.928,216.477,142.2Z" fill="#cd7f32"/>
    </g>
  </g>
</svg>
