<svg xmlns="http://www.w3.org/2000/svg" width="250" height="250" viewBox="0 0 250 250">
  <g id="グループ_5" data-name="グループ 5" transform="translate(-163 -221)">
    <rect id="長方形_7" data-name="長方形 7" width="250" height="250" transform="translate(163 221)" fill="none"/>
    <g id="王冠アイコン" transform="translate(163 193.788)">
      <path id="パス_4" data-name="パス 4" d="M250,117.793a21.759,21.759,0,1,0-33.219,18.471c-5.142,15.19-16.235,41.885-30.212,39.963-17.792-2.434-21.8-31.235-15.106-81.856a21.792,21.792,0,1,0-19.623-2.3c-3.234,51.544-12.344,74.906-26.84,74.906s-23.605-23.361-26.84-74.905a21.727,21.727,0,1,0-19.623,2.3c6.691,50.621,2.686,79.422-15.106,81.856-13.977,1.923-25.07-24.772-30.22-39.963A21.734,21.734,0,1,0,15.5,138.629L42.129,251.223H207.871L234.5,138.629A21.768,21.768,0,0,0,250,117.793Z" fill="gold"/>
    </g>
    <path id="パス_5" data-name="パス 5" d="M6.553-11.418H-4.989V-54.913A39.787,39.787,0,0,1-19.9-46.164V-56.638a33.377,33.377,0,0,0,9.816-5.606,21.3,21.3,0,0,0,7.27-9.631H6.553Z" transform="translate(289 445)" fill="#fff"/>
  </g>
</svg>
