<svg xmlns="http://www.w3.org/2000/svg" width="250" height="250" viewBox="0 0 250 250">
  <g id="グループ_8" data-name="グループ 8" transform="translate(-1610 -227)">
    <g id="長方形_10" data-name="長方形 10" transform="translate(1610 227)" fill="#fff" stroke="#707070" stroke-width="1">
      <rect width="250" height="250" rx="125" stroke="none"/>
      <rect x="0.5" y="0.5" width="249" height="249" rx="124.5" fill="none"/>
    </g>
    <g id="_4位の無料素材" data-name="4位の無料素材" transform="translate(1610 227)">
      <path id="パス_3" data-name="パス 3" d="M125.006,0A125,125,0,1,0,250,125,125,125,0,0,0,125.006,0Zm93.7,82.228c3.322,2.659,5.445,7.739,5.175,13.461-.266,5.705-2.848,10.526-6.4,12.787-3.322-2.659-5.439-7.751-5.169-13.461S215.161,84.489,218.71,82.228Zm-7.678,39.936c-4.406-.9-8.951-4.61-11.615-10.028s-2.764-11.09-.658-14.855c4.406.9,8.95,4.611,11.62,10.034C213.055,112.722,213.143,118.4,211.032,122.164Zm-21.6-38.117c-3.992-3.986-5.849-8.89-5.229-12.732,4.063-.4,9.127,1.6,13.124,5.595s5.849,8.9,5.224,12.731C198.487,90.044,193.43,88.043,189.432,84.047Zm2.82,91.559c-1.083,6.23-4.589,11.162-8.8,13.146-3.272-3.383-4.887-9.254-3.8-15.484s4.589-11.146,8.807-13.141C191.721,163.5,193.346,169.381,192.252,175.606ZM207.7,145.714c-.033,5.977-2.521,11.106-6.125,13.6-3.583-2.647-6-7.878-5.976-13.854s2.515-11.1,6.12-13.605C205.3,134.508,207.726,139.738,207.7,145.714ZM197.161,54.7c3.626,1.2,7.093,4.788,8.823,9.625s1.26,9.619-.874,12.582c-3.616-1.211-7.088-4.788-8.813-9.625S195.033,57.66,197.161,54.7Zm-13.168-3.522c3.726,3.692,5.484,8.259,4.92,11.83-3.781.393-8.5-1.448-12.228-5.152s-5.5-8.254-4.926-11.836C175.534,45.636,180.25,47.482,183.993,51.181Zm-117.979,0c3.743-3.7,8.453-5.545,12.234-5.158.564,3.582-1.188,8.138-4.92,11.836S64.875,63.4,61.1,63.011C60.535,59.44,62.282,54.874,66.014,51.181ZM61.552,160.126c4.212,2,7.717,6.916,8.8,13.141s-.52,12.1-3.8,15.484c-4.207-1.984-7.712-6.916-8.8-13.146S58.279,163.5,61.552,160.126Zm-14.1-70.486c-.625-3.831,1.233-8.74,5.23-12.731s9.055-6,13.113-5.595c.625,3.842-1.238,8.746-5.229,12.732S51.513,90.044,47.455,89.641ZM44.016,64.327c1.736-4.837,5.2-8.425,8.823-9.625,2.134,2.957,2.6,7.745.874,12.582s-5.2,8.414-8.823,9.625C42.756,73.946,42.286,69.159,44.016,64.327Zm7.231,32.954c2.106,3.765,2.018,9.442-.653,14.855s-7.22,9.132-11.62,10.028c-2.111-3.765-2.023-9.442.652-14.849C42.292,101.892,46.836,98.182,51.248,97.281Zm3.162,48.185c.033,5.976-2.4,11.206-5.981,13.854-3.6-2.5-6.087-7.629-6.114-13.6s2.394-11.206,5.971-13.854C51.889,134.365,54.376,139.5,54.41,145.466ZM31.291,82.228c3.56,2.261,6.137,7.07,6.4,12.787s-1.846,10.8-5.169,13.461c-3.555-2.261-6.142-7.082-6.4-12.787C25.85,89.967,27.973,84.887,31.291,82.228ZM20.9,133.851c-3.261-5.014-4.008-10.658-2.36-14.706,4.461.277,9.371,3.328,12.638,8.354s4,10.648,2.36,14.7C29.074,141.928,24.159,138.87,20.9,133.851ZM36.487,181c-5.76-3.638-9.21-8.967-9.431-13.721,4.738-1.625,11.278-.658,17.038,2.979s9.205,8.956,9.431,13.71C48.782,185.6,42.247,184.633,36.487,181Zm30.787,27.111c-6.673-2.118-11.576-6.43-13.157-10.958,4.174-2.709,10.841-3.35,17.514-1.227,6.673,2.106,11.571,6.43,13.157,10.952C80.619,209.588,73.946,210.229,67.274,208.112Zm89.016-52.436a1.282,1.282,0,0,1-1.36,1.36h-6.789a.724.724,0,0,0-.818.818V169.8a1.278,1.278,0,0,1-1.354,1.36H133.486a1.282,1.282,0,0,1-1.36-1.36V157.854a.72.72,0,0,0-.812-.818H95.065a1.281,1.281,0,0,1-1.354-1.36V145.223a2.857,2.857,0,0,1,.409-1.626l29.864-63.669a1.81,1.81,0,0,1,1.9-1.083h12.9c.951,0,1.216.542.951,1.222l-29.323,63.122v.271h20.908a.716.716,0,0,0,.813-.807V119.566a1.28,1.28,0,0,1,1.36-1.349h12.483a1.275,1.275,0,0,1,1.354,1.349v23.086a.721.721,0,0,0,.818.807h6.789a1.283,1.283,0,0,1,1.36,1.354v10.864Zm26.442,52.436c-6.667,2.117-13.345,1.476-17.514-1.233,1.581-4.522,6.479-8.845,13.157-10.952,6.667-2.123,13.345-1.481,17.513,1.227C194.309,201.683,189.41,205.995,182.732,208.112ZM213.519,181c-5.755,3.632-12.295,4.6-17.039,2.969.227-4.754,3.677-10.078,9.432-13.71s12.3-4.6,17.043-2.979C222.729,172.034,219.28,177.364,213.519,181Zm2.952-38.8c-1.642-4.052-.9-9.686,2.36-14.7s8.176-8.076,12.638-8.354c1.647,4.047.9,9.691-2.36,14.706S220.933,141.928,216.471,142.2Z" fill="#003856"/>
    </g>
  </g>
</svg>
